{"title":"Yamla Pagla Deewana Phir Se 2018 Hindi 720p PRE-DVDRip x264 [MW]","magnet":"magnet:?xt=urn:btih:71f9e94559649ceb49a720b8a2e81977edcd0eae&dn=Yamla+Pagla+Deewana+Phir+Se+2018+Hindi+720p+PRE-DVDRip+x264+%5BMW%5D&tr=udp%3A%2F%2Ftracker.leechers-paradise.org%3A6969&tr=udp%3A%2F%2Fzer0day.ch%3A1337&tr=udp%3A%2F%2Fopen.demonii.com%3A1337&tr=udp%3A%2F%2Ftracker.coppersurfer.tk%3A6969&tr=udp%3A%2F%2Fexodus.desync.com%3A6969","uploader":"MFreaky","categoryP":"video","categoryS":"movies","size":"1371194035","seeders":"50","leechers":"125","description":" <a href=\"https://pichub.site/image/D7LyN\" rel=\"nofollow\" target=\"_NEW\">https://pichub.site/image/D7LyN</a> <a href=\"\nhttps://pichub.site/image/D7oFZ\" rel=\"nofollow\" target=\"_NEW\">\nhttps://pichub.site/image/D7oFZ</a> <a href=\"\nhttps://pichub.site/image/D72dg\" rel=\"nofollow\" target=\"_NEW\">\nhttps://pichub.site/image/D72dg</a> <a href=\"\nhttps://pichub.site/image/D75GI\" rel=\"nofollow\" target=\"_NEW\">\nhttps://pichub.site/image/D75GI</a> <a href=\"\nhttps://pichub.site/image/D7l3X\" rel=\"nofollow\" target=\"_NEW\">\nhttps://pichub.site/image/D7l3X</a> <a href=\"\nhttps://pichub.site/image/D7PI8\" rel=\"nofollow\" target=\"_NEW\">\nhttps://pichub.site/image/D7PI8</a>\r\n\r\nIMDB <a href=\"\nhttps://www.imdb.com/title/tt7609114/\" rel=\"nofollow\" target=\"_NEW\">\nhttps://www.imdb.com/title/tt7609114/</a>\r\n\r\nVideo\r\nID : 1\r\nFormat : AVC\r\nFormat/Info : Advanced Video Codec\r\nFormat profile : High@L4.1\r\nFormat settings : CABAC / 4 Ref Frames\r\nFormat settings, CABAC : Yes\r\nFormat settings, RefFrames : 4 frames\r\nCodec ID : V_MPEG4/ISO/AVC\r\nDuration : 2 h 24 min\r\nBit rate : 1 100 kb/s\r\nWidth : 1 280 pixels\r\nHeight : 558 pixels\r\nDisplay aspect ratio : 2.25:1\r\nFrame rate mode : Constant\r\nFrame rate : 25.000 FPS\r\nColor space : YUV\r\nChroma subsampling : 4:2:0\r\nBit depth : 8 bits\r\nScan type : Progressive\r\nBits/(Pixel*Frame) : 0.062\r\nStream size : 1.11 GiB (87%)\r\nWriting library : x264 core 155 r2901 7d0ff22\r\nDefault : Yes\r\nForced : No\r\n\r\nAudio\r\nID : 2\r\nFormat : AAC\r\nFormat/Info : Advanced Audio Codec\r\nFormat profile : LC\r\nCodec ID : A_AAC-2\r\nDuration : 2 h 24 min\r\nBit rate : 161 kb/s\r\nChannel(s) : 2 channels\r\nChannel positions : Front: L R\r\nSampling rate : 48.0 kHz\r\nFrame rate : 46.875 FPS (1024 SPF)\r\nCompression mode : Lossy\r\nStream size : 166 MiB (13%)\r\nLanguage : Hindi\r\nDefault : Yes\r\nForced : No","last_updated":"2018-09-02T12:06:04.454Z","parsed":{"xt":"urn:btih:71f9e94559649ceb49a720b8a2e81977edcd0eae","dn":"Yamla Pagla Deewana Phir Se 2018 Hindi 720p PRE-DVDRip x264 [MW]","tr":["udp://exodus.desync.com:6969","udp://open.demonii.com:1337","udp://tracker.coppersurfer.tk:6969","udp://tracker.leechers-paradise.org:6969","udp://zer0day.ch:1337"],"infoHash":"71f9e94559649ceb49a720b8a2e81977edcd0eae","infoHashBuffer":{"type":"Buffer","data":[113,249,233,69,89,100,156,235,73,167,32,184,162,232,25,119,237,205,14,174]},"name":"Yamla Pagla Deewana Phir Se 2018 Hindi 720p PRE-DVDRip x264 [MW]","announce":["udp://exodus.desync.com:6969","udp://open.demonii.com:1337","udp://tracker.coppersurfer.tk:6969","udp://tracker.leechers-paradise.org:6969","udp://zer0day.ch:1337"],"urlList":[]}}